<svg width="20" height="20" viewBox="0 0 20 20" fill="none" xmlns="http://www.w3.org/2000/svg">
<path fill-rule="evenodd" clip-rule="evenodd" d="M16.6667 14.5V15.3333H3.33333V5.33333H4.16667V14.5H16.6667Z" fill="#21528D"/>
<path fill-rule="evenodd" clip-rule="evenodd" d="M15.8333 6.37497V9.207C15.8333 9.29815 15.791 9.36217 15.7064 9.39906C15.6217 9.43595 15.5447 9.41968 15.4753 9.35023L14.6875 8.56247L10.5664 12.6836C10.523 12.727 10.4731 12.7487 10.4167 12.7487C10.3602 12.7487 10.3103 12.727 10.2669 12.6836L8.75 11.1666L6.04167 13.875L4.79167 12.625L8.60026 8.81638C8.64366 8.77297 8.69358 8.75127 8.75 8.75127C8.80642 8.75127 8.85634 8.77297 8.89974 8.81638L10.4167 10.3333L13.4375 7.31247L12.6497 6.52471C12.5803 6.45527 12.564 6.37823 12.6009 6.29359C12.6378 6.20895 12.7018 6.16664 12.793 6.16664H15.625C15.6858 6.16664 15.7357 6.18617 15.7747 6.22523C15.8138 6.26429 15.8333 6.31421 15.8333 6.37497Z" fill="#21528D"/>
</svg>
