<svg width="24" height="40" viewBox="0 0 24 40" fill="none" xmlns="http://www.w3.org/2000/svg">
<mask id="path-1-outside-1" maskUnits="userSpaceOnUse" x="0" y="-0.322327" width="24" height="24" fill="black">
<rect fill="white" y="-0.322327" width="24" height="24"/>
<path fill-rule="evenodd" clip-rule="evenodd" d="M19.9706 20.6777L3 3.70711L3.70711 3L20.6777 19.9706L19.9706 20.6777Z"/>
</mask>
<path fill-rule="evenodd" clip-rule="evenodd" d="M19.9706 20.6777L3 3.70711L3.70711 3L20.6777 19.9706L19.9706 20.6777Z" fill="#21528D"/>
<path d="M19.9706 20.6777L18.5563 22.0919L19.9706 23.5061L21.3848 22.0919L19.9706 20.6777ZM3 3.70711L1.58579 2.2929L0.171574 3.70711L1.58579 5.12132L3 3.70711ZM3.70711 3L5.12132 1.58579L3.70711 0.171576L2.29289 1.58579L3.70711 3ZM20.6777 19.9706L22.0919 21.3848L23.5061 19.9706L22.0919 18.5564L20.6777 19.9706ZM21.3848 19.2635L4.41421 2.2929L1.58579 5.12132L18.5563 22.0919L21.3848 19.2635ZM4.41421 5.12132L5.12132 4.41422L2.29289 1.58579L1.58579 2.2929L4.41421 5.12132ZM2.29289 4.41422L19.2635 21.3848L22.0919 18.5564L5.12132 1.58579L2.29289 4.41422ZM19.2635 18.5564L18.5563 19.2635L21.3848 22.0919L22.0919 21.3848L19.2635 18.5564Z" fill="#21528D" mask="url(#path-1-outside-1)"/>
<mask id="path-3-outside-2" maskUnits="userSpaceOnUse" x="0" y="16" width="24" height="24" fill="black">
<rect fill="white" y="16" width="24" height="24"/>
<path fill-rule="evenodd" clip-rule="evenodd" d="M3 35.9706L19.9706 19L20.6777 19.7071L3.70711 36.6777L3 35.9706Z"/>
</mask>
<path fill-rule="evenodd" clip-rule="evenodd" d="M3 35.9706L19.9706 19L20.6777 19.7071L3.70711 36.6777L3 35.9706Z" fill="#21528D"/>
<path d="M3 35.9706L1.58579 34.5563L0.171574 35.9706L1.58579 37.3848L3 35.9706ZM19.9706 19L21.3848 17.5858L19.9706 16.1716L18.5563 17.5858L19.9706 19ZM20.6777 19.7071L22.0919 21.1213L23.5061 19.7071L22.0919 18.2929L20.6777 19.7071ZM3.70711 36.6777L2.29289 38.0919L3.70711 39.5061L5.12132 38.0919L3.70711 36.6777ZM4.41421 37.3848L21.3848 20.4142L18.5563 17.5858L1.58579 34.5563L4.41421 37.3848ZM18.5563 20.4142L19.2635 21.1213L22.0919 18.2929L21.3848 17.5858L18.5563 20.4142ZM19.2635 18.2929L2.29289 35.2635L5.12132 38.0919L22.0919 21.1213L19.2635 18.2929ZM5.12132 35.2635L4.41421 34.5563L1.58579 37.3848L2.29289 38.0919L5.12132 35.2635Z" fill="#21528D" mask="url(#path-3-outside-2)"/>
</svg>
