<svg width="24" height="40" viewBox="0 0 24 40" fill="none" xmlns="http://www.w3.org/2000/svg">
<mask id="path-1-outside-1" maskUnits="userSpaceOnUse" x="-0.322334" y="16" width="24" height="24" fill="black">
<rect fill="white" x="-0.322334" y="16" width="24" height="24"/>
<path fill-rule="evenodd" clip-rule="evenodd" d="M3.7071 19L20.6777 35.9705L19.9706 36.6777L3 19.7071L3.7071 19Z"/>
</mask>
<path fill-rule="evenodd" clip-rule="evenodd" d="M3.7071 19L20.6777 35.9705L19.9706 36.6777L3 19.7071L3.7071 19Z" fill="#21528D"/>
<path d="M3.7071 19L5.12132 17.5858L3.7071 16.1716L2.29289 17.5858L3.7071 19ZM20.6777 35.9705L22.0919 37.3848L23.5061 35.9705L22.0919 34.5563L20.6777 35.9705ZM19.9706 36.6777L18.5563 38.0919L19.9706 39.5061L21.3848 38.0919L19.9706 36.6777ZM3 19.7071L1.58578 18.2929L0.171568 19.7071L1.58578 21.1213L3 19.7071ZM2.29289 20.4142L19.2635 37.3848L22.0919 34.5563L5.12132 17.5858L2.29289 20.4142ZM19.2635 34.5563L18.5563 35.2634L21.3848 38.0919L22.0919 37.3848L19.2635 34.5563ZM21.3848 35.2634L4.41421 18.2929L1.58578 21.1213L18.5563 38.0919L21.3848 35.2634ZM4.41421 21.1213L5.12132 20.4142L2.29289 17.5858L1.58578 18.2929L4.41421 21.1213Z" fill="#21528D" mask="url(#path-1-outside-1)"/>
<mask id="path-3-outside-2" maskUnits="userSpaceOnUse" x="-0.322334" y="-0.322342" width="24" height="24" fill="black">
<rect fill="white" x="-0.322334" y="-0.322342" width="24" height="24"/>
<path fill-rule="evenodd" clip-rule="evenodd" d="M20.6777 3.7071L3.7071 20.6777L3 19.9706L19.9706 2.99999L20.6777 3.7071Z"/>
</mask>
<path fill-rule="evenodd" clip-rule="evenodd" d="M20.6777 3.7071L3.7071 20.6777L3 19.9706L19.9706 2.99999L20.6777 3.7071Z" fill="#21528D"/>
<path d="M20.6777 3.7071L22.0919 5.12131L23.5061 3.7071L22.0919 2.29288L20.6777 3.7071ZM3.7071 20.6777L2.29289 22.0919L3.7071 23.5061L5.12132 22.0919L3.7071 20.6777ZM3 19.9706L1.58578 18.5563L0.171568 19.9706L1.58578 21.3848L3 19.9706ZM19.9706 2.99999L21.3848 1.58578L19.9706 0.171561L18.5563 1.58577L19.9706 2.99999ZM19.2635 2.29288L2.29289 19.2634L5.12132 22.0919L22.0919 5.12131L19.2635 2.29288ZM5.12132 19.2634L4.41421 18.5563L1.58578 21.3848L2.29289 22.0919L5.12132 19.2634ZM4.41421 21.3848L21.3848 4.4142L18.5563 1.58577L1.58578 18.5563L4.41421 21.3848ZM18.5563 4.4142L19.2635 5.12131L22.0919 2.29288L21.3848 1.58578L18.5563 4.4142Z" fill="#21528D" mask="url(#path-3-outside-2)"/>
</svg>
