<svg width="64" height="64" viewBox="0 0 64 64" fill="none" xmlns="http://www.w3.org/2000/svg">
<path d="M32 60C31.7809 59.998 31.5678 59.9281 31.39 59.8C30.52 59.13 10 43.3 10 26C10 20.1652 12.3179 14.5695 16.4437 10.4437C20.5695 6.31785 26.1652 4 32 4C37.8348 4 43.4306 6.31785 47.5564 10.4437C51.6822 14.5695 54 20.1652 54 26C54 43.3 33.48 59.13 32.61 59.8C32.4322 59.9281 32.2191 59.998 32 60V60ZM32 6C26.6957 6 21.6086 8.10714 17.8579 11.8579C14.1071 15.6086 12 20.6957 12 26C12 40.71 28.59 55 32 57.72C35.41 55 52 40.7 52 26C52 20.6957 49.8929 15.6086 46.1421 11.8579C42.3914 8.10714 37.3043 6 32 6V6Z" fill="#242648"/>
<path d="M32 15C29.8244 15 27.6977 15.6451 25.8887 16.8538C24.0798 18.0625 22.6699 19.7805 21.8373 21.7905C21.0048 23.8005 20.7869 26.0122 21.2114 28.146C21.6358 30.2798 22.6835 32.2398 24.2218 33.7782C25.7602 35.3166 27.7202 36.3642 29.854 36.7886C31.9878 37.2131 34.1995 36.9952 36.2095 36.1627C38.2195 35.3301 39.9375 33.9202 41.1462 32.1113C42.3549 30.3023 43 28.1756 43 26C43 23.0826 41.8411 20.2847 39.7782 18.2218C37.7153 16.1589 34.9174 15 32 15ZM32 35C30.22 35 28.4799 34.4722 26.9999 33.4832C25.5198 32.4943 24.3663 31.0887 23.6851 29.4442C23.0039 27.7996 22.8257 25.99 23.1729 24.2442C23.5202 22.4984 24.3774 20.8947 25.636 19.636C26.8947 18.3774 28.4984 17.5202 30.2442 17.1729C31.99 16.8257 33.7996 17.0039 35.4442 17.6851C37.0887 18.3663 38.4943 19.5198 39.4832 20.9999C40.4722 22.4799 41 24.22 41 26C41 28.3869 40.0518 30.6761 38.364 32.364C36.6761 34.0518 34.387 35 32 35Z" fill="#242648"/>
<path d="M32 35C36.9706 35 41 30.9706 41 26C41 21.0294 36.9706 17 32 17C27.0294 17 23 21.0294 23 26C23 30.9706 27.0294 35 32 35Z" fill="#242648"/>
</svg>
