<svg width="20" height="19" viewBox="0 0 20 19" fill="none" xmlns="http://www.w3.org/2000/svg">
<path fill-rule="evenodd" clip-rule="evenodd" d="M18.2814 10.6191C20.5729 8.18991 20.5729 4.25114 18.2814 1.82192C15.9956 -0.601236 12.2929 -0.607291 10 1.80375C7.70712 -0.607291 4.00445 -0.601236 1.71865 1.82192C-0.572882 4.25114 -0.572882 8.18991 1.71865 10.6191L9.35624 18.7174C9.71127 19.0939 10.287 19.0939 10.642 18.7175L18.2814 10.6191ZM16.9956 9.25614L9.99924 16.6729L3.00444 9.25622C1.42293 7.57968 1.42293 4.86137 3.00437 3.1849C4.58581 1.50844 7.15004 1.50844 8.73148 3.1849C8.9216 3.38645 9.09244 3.60884 9.24248 3.84852C9.60211 4.42301 10.3979 4.42301 10.7575 3.84852C10.9078 3.6084 11.0779 3.38698 11.2685 3.1849C12.85 1.50844 15.4142 1.50844 16.9956 3.1849C18.5771 4.86137 18.5771 7.57968 16.9956 9.25614Z" fill="#FF007A"/>
<ellipse cx="6.49841" cy="6.50011" rx="5.5" ry="5" fill="#FF007A"/>
<ellipse cx="13.4984" cy="6.50011" rx="5.5" ry="5" fill="#FF007A"/>
<ellipse cx="9.99841" cy="10.5001" rx="6" ry="5" fill="#FF007A"/>
<circle cx="9.99841" cy="15.5001" r="2" fill="#FF007A"/>
</svg>
