<svg width="21" height="20" viewBox="0 0 21 20" fill="none" xmlns="http://www.w3.org/2000/svg">
<path fill-rule="evenodd" clip-rule="evenodd" d="M18.2829 11.119C20.5745 8.68979 20.5745 4.75103 18.2829 2.3218C15.9971 -0.10135 12.2945 -0.107405 10.0016 2.30364C7.70871 -0.107405 4.00604 -0.10135 1.72024 2.3218C-0.571291 4.75103 -0.571291 8.68979 1.72024 11.119L9.35783 19.2173C9.71286 19.5937 10.2886 19.5938 10.6436 19.2174L18.2829 11.119ZM16.9972 9.75603L10.0008 17.1728L3.00603 9.7561C1.42453 8.07956 1.42453 5.36126 3.00596 3.68479C4.5874 2.00832 7.15163 2.00832 8.73307 3.68479C8.92319 3.88634 9.09403 4.10872 9.24407 4.3484C9.6037 4.9229 10.3995 4.9229 10.7591 4.3484C10.9094 4.10829 11.0795 3.88687 11.2701 3.68479C12.8516 2.00832 15.4158 2.00832 16.9972 3.68479C18.5787 5.36126 18.5787 8.07956 16.9972 9.75603Z" fill="#FF007A"/>
<mask id="mask0" mask-type="alpha" maskUnits="userSpaceOnUse" x="0" y="0" width="21" height="20">
<path fill-rule="evenodd" clip-rule="evenodd" d="M18.2829 11.119C20.5745 8.68979 20.5745 4.75103 18.2829 2.3218C15.9971 -0.10135 12.2945 -0.107405 10.0016 2.30364C7.70871 -0.107405 4.00604 -0.10135 1.72024 2.3218C-0.571291 4.75103 -0.571291 8.68979 1.72024 11.119L9.35783 19.2173C9.71286 19.5937 10.2886 19.5938 10.6436 19.2174L18.2829 11.119ZM16.9972 9.75603L10.0008 17.1728L3.00603 9.7561C1.42453 8.07956 1.42453 5.36126 3.00596 3.68479C4.5874 2.00832 7.15163 2.00832 8.73307 3.68479C8.92319 3.88634 9.09403 4.10872 9.24407 4.3484C9.6037 4.9229 10.3995 4.9229 10.7591 4.3484C10.9094 4.10829 11.0795 3.88687 11.2701 3.68479C12.8516 2.00832 15.4158 2.00832 16.9972 3.68479C18.5787 5.36126 18.5787 8.07956 16.9972 9.75603Z" fill="white"/>
</mask>
<g mask="url(#mask0)">
</g>
</svg>
