<svg width="48" height="25" viewBox="0 0 48 25" fill="none" xmlns="http://www.w3.org/2000/svg">
<path d="M4 11H7C8.1 11 9 11.9 9 13V15M4 11H3C1.9 11 1 11.9 1 13V22C1 23.1 1.9 24 3 24H9M4 11V3C4 1.9 4.9 1 6 1H22C23.1 1 24 1.9 24 3M9 15V24M9 15H24M9 24H39M44 11H41C39.9 11 39 11.9 39 13V15M44 11H45C46.1 11 47 11.9 47 13V22C47 23.1 46.1 24 45 24H39M44 11V3C44 1.9 43.1 1 42 1H26C24.9 1 24 1.9 24 3M39 15V24M39 15H24M24 3V15" stroke="#6E7189" stroke-width="2" stroke-miterlimit="10" stroke-linejoin="round"/>
</svg>
