<svg width="48" height="47" viewBox="0 0 48 47" fill="none" xmlns="http://www.w3.org/2000/svg">
<path d="M12 40V44C12 45.1 11.1 46 10 46H6C4.9 46 4 45.1 4 44V37M12 40V37M12 40H36M4 37H1V33H3M4 37H12M12 37H36M36 37V40M36 37H44M36 40V44C36 45.1 36.9 46 38 46H42C43.1 46 44 45.1 44 44V37M44 37H47V33H45M45 33V24C45 21.8 43.2 20 41 20M45 33H31M3 33V24C3 21.8 4.8 20 7 20M3 33H17M41 20H42L39.6 7.3C39.6 7.2 39.5 7.1 39.5 7C39 5.2 37.5 4 35.6 4H29M41 20H7M7 20H6L8.4 7.3C8.4 7.2 8.5 7.1 8.5 7H39.6M17 33H31M17 33V29H31V33M19 24H21M21 26H23M23 24H25M25 26H27M27 24H29M29 4V3C29 1.9 28.1 1 27 1H21C19.9 1 19 1.9 19 3V4M29 4H19M19 4H12.3C10.5 4 8.9 5.2 8.4 7M8 27C8 28.7 9.3 30 11 30C12.7 30 14 28.7 14 27C14 25.3 12.7 24 11 24C9.3 24 8 25.3 8 27ZM40 27C40 25.3 38.7 24 37 24C35.3 24 34 25.3 34 27C34 28.7 35.3 30 37 30C38.7 30 40 28.7 40 27Z" stroke="#6E7189" stroke-width="2" stroke-miterlimit="10" stroke-linejoin="round"/>
</svg>
