<svg width="88" height="72" viewBox="0 0 88 72" fill="none" xmlns="http://www.w3.org/2000/svg">
<path d="M80 52.2021V46C79.9983 44.4092 79.3656 42.8841 78.2407 41.7593C77.1159 40.6344 75.5908 40.0017 74 40H71.2363L67.7891 33.1055C67.6229 32.7733 67.3675 32.494 67.0515 32.2987C66.7355 32.1035 66.3714 32 66 32H30C29.7373 31.9998 29.4772 32.0515 29.2344 32.1519C28.9917 32.2524 28.7712 32.3997 28.5854 32.5854C28.3997 32.7712 28.2524 32.9917 28.1519 33.2344C28.0515 33.4772 27.9998 33.7373 28 34V40H23.4883L11.916 1.4258C11.7922 1.01381 11.539 0.652657 11.1939 0.395845C10.8488 0.139033 10.4302 0.000229109 10 0H2C1.46957 0 0.960859 0.210714 0.585786 0.585787C0.210714 0.96086 0 1.46957 0 2C0 2.53043 0.210714 3.03914 0.585786 3.41421C0.960859 3.78929 1.46957 4 2 4H8.5117L20 42.2942V52.2021C18.2298 52.5634 16.5906 53.3974 15.2565 54.6157C13.9224 55.8339 12.9432 57.3909 12.423 59.121C11.9029 60.8512 11.8612 62.6899 12.3023 64.4419C12.7434 66.1939 13.651 67.7936 14.9285 69.0711C16.2059 70.3486 17.8057 71.2562 19.5576 71.6974C21.3096 72.1386 23.1483 72.0969 24.8785 71.5768C26.6087 71.0567 28.1656 70.0775 29.3839 68.7435C30.6022 67.4094 31.4363 65.7702 31.7976 64H68.2024C68.5637 65.7702 69.3978 67.4094 70.6161 68.7435C71.8344 70.0775 73.3913 71.0567 75.1215 71.5768C76.8517 72.0969 78.6904 72.1386 80.4424 71.6974C82.1943 71.2562 83.7941 70.3486 85.0715 69.0711C86.349 67.7936 87.2566 66.1939 87.6977 64.4419C88.1388 62.6899 88.0971 60.8512 87.577 59.121C87.0568 57.3909 86.0776 55.8339 84.7435 54.6157C83.4094 53.3974 81.7702 52.5634 80 52.2021V52.2021ZM32 36H64.7637L66.7637 40H32V36ZM74 44C74.5302 44.0007 75.0385 44.2116 75.4135 44.5865C75.7884 44.9615 75.9993 45.4698 76 46V52.2021C74.0804 52.5976 72.3188 53.5469 70.9329 54.9328C69.5471 56.3187 68.5978 58.0804 68.2024 60H31.7976C31.4022 58.0804 30.4529 56.3187 29.0671 54.9328C27.6812 53.5469 25.9196 52.5976 24 52.2021V44H74ZM22 68C20.8133 68 19.6533 67.6481 18.6666 66.9888C17.6799 66.3295 16.9108 65.3925 16.4567 64.2961C16.0026 63.1997 15.8838 61.9933 16.1153 60.8295C16.3468 59.6656 16.9182 58.5965 17.7574 57.7574C18.5965 56.9182 19.6656 56.3468 20.8295 56.1153C21.9933 55.8838 23.1997 56.0026 24.2961 56.4567C25.3925 56.9109 26.3295 57.6799 26.9888 58.6666C27.6481 59.6533 28 60.8133 28 62C27.9983 63.5908 27.3656 65.1159 26.2407 66.2407C25.1159 67.3656 23.5908 67.9983 22 68V68ZM78 68C76.8133 68 75.6533 67.6481 74.6666 66.9888C73.6799 66.3295 72.9109 65.3925 72.4567 64.2961C72.0026 63.1997 71.8838 61.9933 72.1153 60.8295C72.3468 59.6656 72.9182 58.5965 73.7574 57.7574C74.5965 56.9182 75.6656 56.3468 76.8295 56.1153C77.9933 55.8838 79.1997 56.0026 80.2961 56.4567C81.3925 56.9109 82.3295 57.6799 82.9888 58.6666C83.6481 59.6533 84 60.8133 84 62C83.9983 63.5908 83.3656 65.1159 82.2407 66.2407C81.1159 67.3656 79.5908 67.9983 78 68V68Z" fill="#6E7189"/>
</svg>
