<svg width="64" height="64" viewBox="0 0 64 64" fill="none" xmlns="http://www.w3.org/2000/svg">
<path d="M54.56 47.14L53.71 46.29L50.71 43.29C50.6166 43.1973 50.5057 43.124 50.3839 43.0742C50.2621 43.0245 50.1316 42.9992 50 43H42C41.8684 42.9992 41.7379 43.0245 41.6161 43.0742C41.4943 43.124 41.3834 43.1973 41.29 43.29L39.59 45H35.41L32 41.59L31.71 41.3C31.5694 41.1612 31.3908 41.0672 31.1968 41.0299C31.0028 40.9925 30.8021 41.0134 30.62 41.09C30.4389 41.1644 30.2837 41.2902 30.1735 41.452C30.0633 41.6137 30.0029 41.8043 30 42V44.59L26.29 48.29C26.1973 48.3834 26.124 48.4943 26.0742 48.6161C26.0245 48.7379 25.9992 48.8684 26 49V52.59L23.29 55.29C23.1973 55.3834 23.124 55.4943 23.0742 55.6161C23.0245 55.7379 22.9992 55.8684 23 56V57.8C22.9996 57.9874 23.0519 58.1712 23.1509 58.3303C23.25 58.4894 23.3917 58.6175 23.56 58.7H23.7C29.2863 60.4275 35.2726 60.3674 40.8231 58.528C46.3735 56.6886 51.211 53.1618 54.66 48.44C54.8016 48.2472 54.8693 48.01 54.851 47.7715C54.8327 47.5329 54.7294 47.3089 54.56 47.14ZM32 58C29.6322 57.9851 27.2773 57.6487 25 57V56.36L27.71 53.66C27.8854 53.4837 27.9888 53.2484 28 53V49.41L31.71 45.71C31.8027 45.6166 31.876 45.5057 31.9258 45.3839C31.9755 45.2621 32.0008 45.1316 32 45V44.42L34.29 46.71C34.3834 46.8027 34.4943 46.876 34.6161 46.9258C34.7379 46.9755 34.8684 47.0008 35 47H40C40.1316 47.0008 40.2621 46.9755 40.3839 46.9258C40.5057 46.876 40.6166 46.8027 40.71 46.71L42.41 45H49.59L52.53 47.94C50.1008 51.0704 46.9882 53.6041 43.4301 55.3476C39.8719 57.0912 35.9624 57.9984 32 58V58Z" fill="#242648"/>
<path d="M31.71 41.86L30.87 41L30 40.15L28.15 38.29C28.0566 38.1973 27.9457 38.124 27.8239 38.0742C27.7021 38.0245 27.5716 37.9992 27.44 38H23.28L17 31.7V24.2C16.9963 23.9352 16.8927 23.6816 16.71 23.49L12.51 19.29C12.3184 19.1073 12.0648 19.0037 11.8 19H7.8C7.61533 19.0006 7.43443 19.0522 7.27733 19.1493C7.12024 19.2464 6.9931 19.3851 6.91 19.55V19.64C4.98696 23.4758 3.99028 27.7091 4 32C3.97754 37.9569 5.86498 43.7641 9.38533 48.5695C12.9057 53.3749 17.8736 56.9254 23.56 58.7H23.7C23.7991 58.7192 23.9009 58.7192 24 58.7C24.2652 58.7 24.5196 58.5946 24.7071 58.4071C24.8946 58.2196 25 57.9652 25 57.7V56.41L27.71 53.71C27.8027 53.6166 27.876 53.5057 27.9258 53.3839C27.9755 53.2621 28.0008 53.1316 28 53V49.41L31.71 45.71C31.8027 45.6166 31.876 45.5057 31.9258 45.3839C31.9755 45.2621 32.0008 45.1316 32 45V42.57C32.0008 42.4384 31.9755 42.3079 31.9258 42.1861C31.876 42.0643 31.8027 41.9534 31.71 41.86V41.86ZM30 44.59L26.29 48.29C26.1973 48.3834 26.124 48.4943 26.0742 48.6161C26.0245 48.7379 25.9992 48.8684 26 49V52.59L23.29 55.29C23.1973 55.3834 23.124 55.4943 23.0742 55.6161C23.0245 55.7379 22.9992 55.8684 23 56V56.41C18.0008 54.5823 13.6864 51.2581 10.6444 46.8902C7.60241 42.5222 5.98065 37.3228 6 32C5.98699 28.1977 6.82048 24.4402 8.44 21H11.44L15 24.61V32.11C14.9992 32.2416 15.0245 32.3721 15.0742 32.4939C15.124 32.6157 15.1973 32.7266 15.29 32.82L22.15 39.71C22.2434 39.8027 22.3543 39.876 22.4761 39.9258C22.5979 39.9755 22.7284 40.0008 22.86 40H27L30 43V44.59Z" fill="#242648"/>
<path d="M39.32 5C39.1563 4.96434 38.9863 4.97037 38.8255 5.01755C38.6648 5.06473 38.5185 5.15153 38.4 5.27L37.09 6.5L35.59 8H30C29.7348 8 29.4804 8.10536 29.2929 8.29289C29.1054 8.48043 29 8.73478 29 9V13C28.9992 13.1316 29.0245 13.2621 29.0742 13.3839C29.124 13.5057 29.1973 13.6166 29.29 13.71L33.29 17.71C33.3834 17.8027 33.4943 17.876 33.6161 17.9258C33.7379 17.9755 33.8684 18.0008 34 18H37.92L41 21V22.72L37.66 26H31C30.7377 26.0011 30.4863 26.1053 30.3 26.29L24.94 31.55C24.8463 31.643 24.7719 31.7536 24.7211 31.8754C24.6703 31.9973 24.6442 32.128 24.6442 32.26C24.6442 32.392 24.6703 32.5227 24.7211 32.6446C24.7719 32.7664 24.8463 32.877 24.94 32.97L30 37.97V42C29.9992 42.1316 30.0245 42.2621 30.0742 42.3839C30.124 42.5057 30.1973 42.6166 30.29 42.71L34.29 46.71C34.3834 46.8027 34.4943 46.876 34.6161 46.9258C34.7379 46.9755 34.8684 47.0008 35 47H40C40.1316 47.0008 40.2621 46.9755 40.3839 46.9258C40.5057 46.876 40.6166 46.8027 40.71 46.71L42.41 45H49.59L52.53 47.94L53.14 48.56C53.2334 48.6527 53.3443 48.726 53.4661 48.7758C53.5879 48.8255 53.7184 48.8508 53.85 48.85H53.93C54.0741 48.8385 54.2139 48.7959 54.34 48.7251C54.466 48.6543 54.5752 48.557 54.66 48.44C57.3166 44.7703 59.0432 40.5108 59.6914 36.027C60.3396 31.5432 59.8902 26.9691 58.3816 22.6973C56.8731 18.4254 54.3506 14.5834 51.0305 11.5009C47.7104 8.41849 43.6919 6.18769 39.32 5V5ZM50.71 43.29C50.6166 43.1973 50.5057 43.124 50.3839 43.0742C50.2621 43.0245 50.1316 42.9992 50 43H42C41.8684 42.9992 41.7379 43.0245 41.6161 43.0742C41.4943 43.124 41.3834 43.1973 41.29 43.29L39.59 45H35.41L32 41.59V37.51C32.0008 37.376 31.9746 37.2432 31.9231 37.1195C31.8716 36.9959 31.7957 36.8838 31.7 36.79L27.07 32.26L31.41 28H38.07C38.3323 27.9989 38.5837 27.8947 38.77 27.71L42.7 23.86C42.7945 23.7674 42.8697 23.6569 42.9212 23.5351C42.9727 23.4132 42.9995 23.2823 43 23.15V20.59C42.9995 20.4577 42.9727 20.3268 42.9212 20.2049C42.8697 20.0831 42.7945 19.9726 42.7 19.88L39 16.29C38.8137 16.1053 38.5623 16.0011 38.3 16H34.41L31 12.59V10H36C36.1316 10.0008 36.2621 9.97554 36.3839 9.92577C36.5057 9.87601 36.6166 9.80268 36.71 9.71L39.35 7.06C44.7343 8.64682 49.4604 11.9335 52.822 16.4289C56.1836 20.9242 58.0001 26.3868 58 32C58.0128 37.0825 56.52 42.0549 53.71 46.29L50.71 43.29Z" fill="#242648"/>
<path d="M42.7 19.88L39 16.29C38.8137 16.1053 38.5623 16.0011 38.3 16H34.41L31 12.59V10H36C36.1316 10.0008 36.2621 9.97554 36.3839 9.92577C36.5057 9.87601 36.6166 9.80268 36.71 9.71L39.77 6.65C39.9003 6.52278 39.9933 6.36241 40.0392 6.18618C40.085 6.00995 40.0818 5.82456 40.03 5.65C39.9841 5.48261 39.8954 5.33004 39.7727 5.2073C39.65 5.08457 39.4974 4.99589 39.33 4.95H39.27C36.9 4.30991 34.4549 3.9904 32 4C26.7815 3.98299 21.663 5.43149 17.2273 8.18061C12.7916 10.9297 9.21684 14.869 6.91 19.55C6.90576 19.5798 6.90576 19.6101 6.91 19.64C6.85243 19.7889 6.83137 19.9495 6.84856 20.1082C6.86575 20.2669 6.9207 20.4193 7.00881 20.5524C7.09692 20.6856 7.21564 20.7957 7.35503 20.8735C7.49441 20.9514 7.65042 20.9948 7.81 21H11.39L15 24.61V32.11C14.9992 32.2416 15.0245 32.3721 15.0742 32.4939C15.124 32.6157 15.1973 32.7266 15.29 32.82L22.15 39.71C22.2434 39.8027 22.3543 39.876 22.4761 39.9258C22.5979 39.9755 22.7284 40.0008 22.86 40H27L30 43L30.29 43.29C30.3834 43.3827 30.4943 43.456 30.6161 43.5058C30.7379 43.5555 30.8684 43.5808 31 43.58H31.14C31.2234 43.5706 31.3046 43.547 31.38 43.51C31.5626 43.435 31.7189 43.3076 31.8293 43.1439C31.9396 42.9801 31.999 42.7874 32 42.59V37.51C32.0008 37.376 31.9746 37.2432 31.9231 37.1195C31.8716 36.9959 31.7957 36.8838 31.7 36.79L27.07 32.26L31.41 28H38.07C38.3323 27.9989 38.5837 27.8947 38.77 27.71L42.7 23.86C42.7945 23.7674 42.8697 23.6569 42.9212 23.5351C42.9726 23.4132 42.9994 23.2823 43 23.15V20.59C42.9994 20.4577 42.9726 20.3268 42.9212 20.2049C42.8697 20.0831 42.7945 19.9726 42.7 19.88V19.88ZM41 22.73L37.66 26H31C30.7377 26.0011 30.4863 26.1053 30.3 26.29L24.94 31.55C24.8463 31.643 24.7719 31.7536 24.7211 31.8754C24.6703 31.9973 24.6442 32.128 24.6442 32.26C24.6442 32.392 24.6703 32.5227 24.7211 32.6446C24.7719 32.7664 24.8463 32.877 24.94 32.97L30 37.97V40.19L28.15 38.33C28.0566 38.2373 27.9457 38.164 27.8239 38.1142C27.7021 38.0645 27.5716 38.0392 27.44 38.04H23.28L17 31.7V24.2C16.9963 23.9352 16.8927 23.6816 16.71 23.49L12.51 19.29C12.3184 19.1073 12.0648 19.0037 11.8 19H9.48C12.1975 14.2914 16.3227 10.5532 21.2753 8.31096C26.2279 6.06875 31.7587 5.43541 37.09 6.5L35.59 8H30C29.7348 8 29.4804 8.10536 29.2929 8.29289C29.1054 8.48043 29 8.73478 29 9V13C28.9992 13.1316 29.0245 13.2621 29.0742 13.3839C29.124 13.5057 29.1973 13.6166 29.29 13.71L33.29 17.71C33.3834 17.8027 33.4943 17.876 33.6161 17.9258C33.7379 17.9755 33.8684 18.0008 34 18H37.92L41 21V22.73Z" fill="#242648"/>
<path d="M41 21V22.72L37.66 26H31C30.7377 26.0011 30.4863 26.1053 30.3 26.29L24.94 31.55C24.8463 31.643 24.7719 31.7536 24.7211 31.8754C24.6703 31.9973 24.6442 32.128 24.6442 32.26C24.6442 32.392 24.6703 32.5227 24.7211 32.6446C24.7719 32.7664 24.8463 32.877 24.94 32.97L30 37.97V40.19L28.15 38.33C28.0566 38.2373 27.9457 38.164 27.8239 38.1142C27.7021 38.0645 27.5716 38.0392 27.44 38.04H23.28L17 31.7V24.2C16.9963 23.9352 16.8927 23.6816 16.71 23.49L12.51 19.29C12.3184 19.1073 12.0648 19.0037 11.8 19H9.48C12.1975 14.2914 16.3227 10.5532 21.2753 8.31096C26.2279 6.06875 31.7587 5.43541 37.09 6.5L35.59 8H30C29.7348 8 29.4804 8.10536 29.2929 8.29289C29.1054 8.48043 29 8.73478 29 9V13C28.9992 13.1316 29.0245 13.2621 29.0742 13.3839C29.124 13.5057 29.1973 13.6166 29.29 13.71L33.29 17.71C33.3834 17.8027 33.4943 17.876 33.6161 17.9258C33.7379 17.9755 33.8684 18.0008 34 18H37.92L41 21Z" fill="#242648"/>
<path d="M52.53 47.94C49.3649 52.021 45.0561 55.067 40.153 56.6895C35.2499 58.3119 29.9747 58.4375 25 57.05V56.41L27.71 53.71C27.8027 53.6166 27.876 53.5057 27.9258 53.3839C27.9755 53.2621 28.0008 53.1316 28 53V49.41L31.71 45.71C31.8027 45.6166 31.876 45.5057 31.9258 45.3839C31.9755 45.2621 32.0008 45.1316 32 45V44.42L34.29 46.71C34.3834 46.8027 34.4943 46.876 34.6161 46.9258C34.7379 46.9755 34.8684 47.0008 35 47H40C40.1316 47.0008 40.2621 46.9755 40.3839 46.9258C40.5057 46.876 40.6166 46.8027 40.71 46.71L42.41 45H49.59L52.53 47.94Z" fill="#242648"/>
</svg>
