<svg width="47" height="47" viewBox="0 0 47 47" fill="none" xmlns="http://www.w3.org/2000/svg">
<path d="M34 7.00003L38 3.00003C39.6569 1.34317 42.3431 1.34317 44 3.00003C45.6569 4.65688 45.6569 7.34317 44 9.00003L40 13M34 7.00003L40 13M34 7.00003L30 11M40 13L18.6144 34.3856C18.8652 35.213 19 36.0908 19 37C19 41.9706 14.9706 46 10 46C5.02944 46 1 41.9706 1 37C1 32.0295 5.02944 28 10 28C10.9093 28 11.787 28.1349 12.6144 28.3856L18 23M30 11L34 15M30 11L27 14M27 14L30 17M27 14L24 17M24 17L28 21M24 17L21 20M21 20L24 23M21 20L18 23M18 23L22 27M15 37C15 39.7615 12.7614 42 10 42" stroke="#6E7189" stroke-width="2" stroke-linejoin="round"/>
</svg>
