<svg width="64" height="64" viewBox="0 0 64 64" fill="none" xmlns="http://www.w3.org/2000/svg">
<path d="M53.8538 28.4122H56.3872L54.5369 26.6819L32.6741 6.23595L31.991 5.59718L31.308 6.23595L9.4452 26.6819L7.59491 28.4122H10.1282H13.3277C13.7232 28.4122 14.1344 28.5907 14.4604 28.9632C14.7901 29.34 14.9939 29.8765 14.9939 30.4593V57.883V58.883H15.9939H23.9925H24.9925V57.883V45.6947V45.6537L24.9891 45.6129C24.9794 45.4951 24.9794 45.3764 24.9891 45.2585L24.9904 45.2424L24.9912 45.2263C25.0963 43.1104 25.9064 41.1444 27.2228 39.7253C28.5356 38.3099 30.2441 37.5503 31.9892 37.5535H31.991C33.8008 37.5535 35.5683 38.374 36.8943 39.8894C38.224 41.4091 38.9896 43.4956 38.9896 45.6947V57.883V58.883H39.9896H47.9882H48.9882V57.883V30.4593C48.9882 29.8765 49.192 29.34 49.5217 28.9632C49.8477 28.5907 50.2589 28.4122 50.6544 28.4122H53.8538Z" fill="#F3F4FB" stroke="#242648" stroke-width="2"/>
<path d="M32 6.53061L47.8359 27.102H16.1641L32 6.53061Z" fill="#242648"/>
</svg>
