<svg width="44" height="30" viewBox="0 0 44 30" fill="none" xmlns="http://www.w3.org/2000/svg">
<path d="M38 26H41C42.1 26 43 26.9 43 28V29H29M38 26H34M38 26V20.4M29 29H3C1.9 29 1 28.1 1 27V26H3M29 29V28C29 26.9 29.9 26 31 26M34 26H31M34 26V20.4M31 26H3M3 26V24C3 16.2 8.6 9.7 16 8.3M34.7 20.8C35.1 20.9 35.6 21 36 21C36.7 21 37.4 20.8 38 20.4M34.7 20.8C34.4 20.7 34.2 20.5 34 20.4M34.7 20.8L34 20.4M38 20.4C39.2 19.7 40 18.4 40 17V1H32V14.7M32 14.7V17C32 18.5 32.8 19.8 34 20.4M32 14.7C29.6 11.4 26.1 9.1 22 8.3M16 8.3C17 8.1 18 8 19 8C20 8 21 8.1 22 8.3M16 8.3C16 8.2 16 8.1 16 8C16 6.3 17.3 5 19 5C20.7 5 22 6.3 22 8C22 8.1 22 8.2 22 8.3" stroke="#6E7189" stroke-width="2" stroke-miterlimit="10" stroke-linejoin="round"/>
</svg>
