<svg width="48" height="47" viewBox="0 0 48 47" fill="none" xmlns="http://www.w3.org/2000/svg">
<path d="M12 37H16M18 37H22M24 37H28M32 37H44M9.2 10.2C9.9 9.4 10.9 9 12 9C13.1 9 14.1 9.4 14.8 10.2M6.3 7.3C7.8 5.9 9.8 5 12 5C14.2 5 16.2 5.9 17.7 7.3M3.5 4.5C5.7 2.3 8.7 1 12 1C15.3 1 18.3 2.3 20.5 4.5M33.2 10.2C33.9 9.5 34.9 9 36 9C37.1 9 38.1 9.4 38.8 10.2M30.4 7.3C31.8 5.9 33.8 5 36 5C38.2 5 40.2 5.9 41.7 7.3M27.5 4.5C29.7 2.3 32.7 1 36 1C39.3 1 42.3 2.3 44.5 4.5M12 13V31M36 13V31M3 43H45C46.1 43 47 42.1 47 41V33C47 31.9 46.1 31 45 31H3C1.9 31 1 31.9 1 33V41C1 42.1 1.9 43 3 43ZM7 39C5.9 39 5 38.1 5 37C5 35.9 5.9 35 7 35C8.1 35 9 35.9 9 37C9 38.1 8.1 39 7 39ZM5 43H10V46H5V43ZM38 43H43V46H38V43Z" stroke="#6E7189" stroke-width="2" stroke-linejoin="round"/>
</svg>
