<svg width="48" height="48" viewBox="0 0 48 48" fill="none" xmlns="http://www.w3.org/2000/svg">
<path d="M6.40194 4.5L8.99999 5.99999M8.99999 5.99999L11.5981 7.5M8.99999 5.99999L11.5981 4.5M8.99999 5.99999L6.40194 7.5M8.99999 5.99999V3M8.99999 5.99999V9M16.4019 4.50001L19 6M19 6L21.5981 7.50001M19 6L21.5981 4.50001M19 6L16.4019 7.50001M19 6V3.00001M19 6V9.00001M26.4019 4.5L29 5.99999M29 5.99999L31.5981 7.5M29 5.99999L31.5981 4.5M29 5.99999L26.4019 7.5M29 5.99999L29 3M29 5.99999L29 9M36 6H42M20 15H28V23H20V15ZM8 15H16V23H8V15ZM32 15H40V23H32V15ZM20 27H28V35H20V27ZM8 27H16V35H8V27ZM32 27H40V35H32V27ZM20 39H28V47H20V39ZM8 39H16V47H8V39ZM32 39H40V47H32V39ZM1 1H47V11H1V1Z" stroke="#6E7189" stroke-width="2" stroke-linejoin="round"/>
</svg>
