<svg width="44" height="42" viewBox="0 0 44 42" fill="none" xmlns="http://www.w3.org/2000/svg">
<path d="M32 21V33M32 21H39V19.1V18M32 21H8M32 33V37M32 33C34.2 33 36 34.8 36 37C36 39.2 34.2 41 32 41C29.8 41 28 39.2 28 37C28 34.8 29.8 33 32 33ZM8 33V37M8 33V21M8 33C5.8 33 4 34.8 4 37C4 39.2 5.8 41 8 41C10.2 41 12 39.2 12 37C12 34.8 10.2 33 8 33ZM8 21H1V18H39M39 18C39 17.7 39 17.4 39 17C39 13 42 13 42 13H44M10 13H9V14C9 15.1 9.9 16 11 16H29C30.1 16 31 15.1 31 14V13H30M10 13H30M10 13C10 8.2 13.4 4.1 18 3.2M30 13C30 8.2 26.6 4.1 22 3.2M22 3.2C21.3 3.1 20.7 3 20 3C19.3 3 18.7 3.1 18 3.2M22 3.2C22 3.1 22 3.1 22 3C22 1.9 21.1 1 20 1C18.9 1 18 1.9 18 3C18 3.1 18 3.1 18 3.2M8 26H32" stroke="#6E7189" stroke-width="2" stroke-linejoin="round"/>
</svg>
