<svg width="40" height="40" viewBox="0 0 40 40" fill="none" xmlns="http://www.w3.org/2000/svg">
<path d="M23 12H17V20H23C24.0609 20 25.0783 19.5786 25.8284 18.8284C26.5786 18.0783 27 17.0609 27 16C27 14.9391 26.5786 13.9217 25.8284 13.1716C25.0783 12.4214 24.0609 12 23 12V12Z" fill="#6E7189"/>
<path d="M20 0C16.0444 0 12.1776 1.17298 8.88859 3.37061C5.59961 5.56824 3.03616 8.69181 1.5224 12.3463C0.00865042 16.0009 -0.387416 20.0222 0.384288 23.9018C1.15599 27.7814 3.06081 31.3451 5.85786 34.1421C8.65491 36.9392 12.2186 38.844 16.0982 39.6157C19.9778 40.3874 23.9991 39.9913 27.6537 38.4776C31.3082 36.9638 34.4318 34.4004 36.6294 31.1114C38.827 27.8224 40 23.9556 40 20C39.9939 14.6975 37.8848 9.614 34.1354 5.86459C30.386 2.11518 25.3025 0.00608734 20 0V0ZM23 22H17V29C17 29.2652 16.8946 29.5196 16.7071 29.7071C16.5196 29.8946 16.2652 30 16 30C15.7348 30 15.4804 29.8946 15.2929 29.7071C15.1053 29.5196 15 29.2652 15 29V11C15 10.7348 15.1053 10.4804 15.2929 10.2929C15.4804 10.1054 15.7348 10 16 10H23C24.5913 10 26.1174 10.6321 27.2426 11.7574C28.3679 12.8826 29 14.4087 29 16C29 17.5913 28.3679 19.1174 27.2426 20.2426C26.1174 21.3679 24.5913 22 23 22Z" fill="#6E7189"/>
</svg>
