<svg width="48" height="48" viewBox="0 0 48 48" fill="none" xmlns="http://www.w3.org/2000/svg">
<path d="M8 5C8 2.8 9.8 1 12 1C14.2 1 16 2.8 16 5V35M16 35C12.8 35 10 36 8 37C6 38 3.2 39 0 39M16 35C19.2 35 22 36 24 37C26 38 28.8 39 32 39C35.2 39 38 38 40 37C42 36 44.8 35 48 35M16 35H36M28 5C28 2.8 29.8 1 32 1C34.2 1 36 2.8 36 5V38.5M16 10H36M16 15H36M16 20H36M16 25H36M16 30H36M0 43C3.2 43 6 42 8 41C10 40 12.8 39 16 39C19.2 39 22 40 24 41C26 42 28.8 43 32 43C35.2 43 38 42 40 41C42 40 44.8 39 48 39M0 47C3.2 47 6 46 8 45C10 44 12.8 43 16 43C19.2 43 22 44 24 45C26 46 28.8 47 32 47C35.2 47 38 46 40 45C42 44 44.8 43 48 43" stroke="#6E7189" stroke-width="2" stroke-linejoin="round"/>
</svg>
