<svg width="34" height="48" viewBox="0 0 34 48" fill="none" xmlns="http://www.w3.org/2000/svg">
<path d="M21 13V5H23C23 2.79086 24.7909 1 27 1C29.2091 1 31 2.79086 31 5H33V43H31C31 45.2091 29.2091 47 27 47C24.7909 47 23 45.2091 23 43H21V19M30 28C30 26.3431 28.6569 25 27 25C25.3431 25 24 26.3431 24 28C24 28.8885 24.3863 29.6868 25 30.2361V35H29V30.2361C29.6137 29.6868 30 28.8885 30 28ZM1 13H27C28.6569 13 30 14.3431 30 16C30 17.6569 28.6569 19 27 19H1V13Z" stroke="#6E7189" stroke-width="2" stroke-linejoin="round"/>
</svg>
