<svg width="32" height="32" viewBox="0 0 32 32" fill="none" xmlns="http://www.w3.org/2000/svg">
<path fill-rule="evenodd" clip-rule="evenodd" d="M22.8735 20.1243H21.4209L20.9169 19.6235C22.7008 17.5435 23.7848 14.8463 23.7848 11.8917C23.7848 5.32391 18.4603 0 11.8924 0C5.32429 0 0 5.32391 0 11.8917C0 18.4594 5.32429 23.7833 11.8924 23.7833C14.8461 23.7833 17.5429 22.6998 19.6225 20.9172L20.1274 21.4194V22.8687L29.2721 32L31.9999 29.2722L22.8735 20.1243ZM11.8924 20.1243C7.34512 20.1243 3.65905 16.4387 3.65905 11.8917C3.65905 7.34465 7.34512 3.65901 11.8924 3.65901C16.4397 3.65901 20.1256 7.34465 20.1256 11.8917C20.1256 16.4387 16.4397 20.1243 11.8924 20.1243Z" fill="white"/>
</svg>
