<svg width="34" height="48" viewBox="0 0 34 48" fill="none" xmlns="http://www.w3.org/2000/svg">
<path d="M9 23.7355L15 29.7355L25 19.7355M17 46.7355C15 46.7355 1 34.7355 1 23.7355V11.7355C5 11.7355 13 6.73547 17 1C21 6.73547 29 11.7355 33 11.7355V23.7355C33 34.7355 19 46.7355 17 46.7355ZM17 41.7355C15.5248 41.7355 5 31.8493 5 23.7355V14.7355C9 14.7355 15 10.7355 16.9978 7.26582C19 10.7355 25 14.7355 29 14.7355V23.7355C29 31.8493 18.4752 41.7355 17 41.7355Z" stroke="#6E7189" stroke-width="2" stroke-miterlimit="10" stroke-linejoin="round"/>
</svg>
