<svg width="42" height="36" viewBox="0 0 42 36" fill="none" xmlns="http://www.w3.org/2000/svg">
<path d="M17 12C17 18.1 13.4 23 9 23M17 12C17 5.9 13.4 1 9 1M17 12H21M9 23C4.6 23 1 18.1 1 12M9 23H24M1 12C1 5.9 4.6 1 9 1M1 12V31M9 1H33C37.4 1 41 5.9 41 12M41 12C41 18.1 37.4 23 33 23H24M41 12H38M24 23V31M1 31V35H24V31M1 31H4M24 31H21M23 12H26M31 12H28M33 12H36M6 31H9M14 31H11M19 31H16M9 6C6.6 6 4.6 8.7 4.6 12C4.6 15.3 6.6 18 9 18C11.4 18 13.4 15.3 13.4 12C13.4 8.7 11.4 6 9 6Z" stroke="#6E7189" stroke-width="2" stroke-miterlimit="10" stroke-linejoin="round"/>
</svg>
