<svg width="100" height="100" viewBox="0 0 100 100" fill="none" xmlns="http://www.w3.org/2000/svg">
<path d="M50 23.333C42.637 23.333 36.667 29.303 36.667 36.666C36.667 44.032 42.637 50 50 50C57.363 50 63.333 44.032 63.333 36.667C63.333 29.303 57.363 23.333 50 23.333ZM50 43.333C46.318 43.333 43.333 40.348 43.333 36.666C43.333 32.984 46.318 30 50 30C53.682 30 56.667 32.985 56.667 36.667C56.667 40.349 53.682 43.333 50 43.333Z" fill="#21528D"/>
<path d="M50 10C27.907 10 10 27.909 10 50.001C10 72.09 27.907 90 50 90C72.09 90 90 72.09 90 50.001C90 27.909 72.09 10 50 10ZM30 76.621V70C30 66.318 32.985 63.333 36.667 63.333H63.333C67.015 63.333 70 66.318 70 70V76.621C64.424 80.817 57.513 83.333 50 83.333C42.487 83.333 35.573 80.817 30 76.621ZM76.66 69.944C76.631 62.61 70.677 56.667 63.333 56.667H36.667C29.323 56.667 23.366 62.607 23.34 69.948C19.167 64.382 16.667 57.49 16.667 50.001C16.667 31.59 31.589 16.666 50 16.666C68.408 16.666 83.333 31.59 83.333 50.001C83.333 57.49 80.833 64.382 76.66 69.944Z" fill="#21528D"/>
</svg>
