<svg width="40" height="42" viewBox="0 0 40 42" fill="none" xmlns="http://www.w3.org/2000/svg">
<path d="M5 4C5 2.3 6.3 1 8 1H18C19.7 1 21 2.3 21 4M5 4H21M5 4H4C2.3 4 1 5.3 1 7M21 4H22C23.7 4 25 5.3 25 7M1 15H25M1 15V7M1 15L2.4 27M25 15L24.3 21M25 15V7M1 7H25M2.4 27L4 41H23M2.4 27H17M23 41C22.7 41 22.3 41 22 40.9C19.2 40.4 17 38 17 35V34H20M23 41H33C36.3 41 39 38.3 39 35V34H36M24.3 21H23C19.7 21 17 23.7 17 27M24.3 21H33C36.3 21 39 23.7 39 27V28H36M17 27V28H20M20 28C18.3 28 17 29.3 17 31C17 32.7 18.3 34 20 34M20 28H36M36 28C37.7 28 39 29.3 39 31C39 32.7 37.7 34 36 34M20 34H36" stroke="#6E7189" stroke-width="2" stroke-miterlimit="10" stroke-linejoin="round"/>
</svg>
