<svg width="32" height="48" viewBox="0 0 32 48" fill="none" xmlns="http://www.w3.org/2000/svg">
<path d="M16 6V42M1 1H31V47H1V1ZM10 40C10 41.1046 9.10457 42 8 42C6.89543 42 6 41.1046 6 40C6 38.8954 6.89543 38 8 38C9.10457 38 10 38.8954 10 40ZM10 8C10 9.10457 9.10457 10 8 10C6.89543 10 6 9.10457 6 8C6 6.89543 6.89543 6 8 6C9.10457 6 10 6.89543 10 8ZM10 32C10 33.1046 9.10457 34 8 34C6.89543 34 6 33.1046 6 32C6 30.8954 6.89543 30 8 30C9.10457 30 10 30.8954 10 32ZM10 24C10 25.1046 9.10457 26 8 26C6.89543 26 6 25.1046 6 24C6 22.8954 6.89543 22 8 22C9.10457 22 10 22.8954 10 24ZM10 16C10 17.1046 9.10457 18 8 18C6.89543 18 6 17.1046 6 16C6 14.8954 6.89543 14 8 14C9.10457 14 10 14.8954 10 16ZM26 40C26 41.1046 25.1046 42 24 42C22.8954 42 22 41.1046 22 40C22 38.8954 22.8954 38 24 38C25.1046 38 26 38.8954 26 40ZM26 8C26 9.10457 25.1046 10 24 10C22.8954 10 22 9.10457 22 8C22 6.89543 22.8954 6 24 6C25.1046 6 26 6.89543 26 8ZM26 32C26 33.1046 25.1046 34 24 34C22.8954 34 22 33.1046 22 32C22 30.8954 22.8954 30 24 30C25.1046 30 26 30.8954 26 32ZM26 24C26 25.1046 25.1046 26 24 26C22.8954 26 22 25.1046 22 24C22 22.8954 22.8954 22 24 22C25.1046 22 26 22.8954 26 24ZM26 16C26 17.1046 25.1046 18 24 18C22.8954 18 22 17.1046 22 16C22 14.8954 22.8954 14 24 14C25.1046 14 26 14.8954 26 16Z" stroke="#6E7189" stroke-width="2" stroke-linejoin="round"/>
</svg>
