<svg width="42" height="48" viewBox="0 0 42 48" fill="none" xmlns="http://www.w3.org/2000/svg">
<path d="M4 1H1V7M4 1H14M4 1V4H14V1M1 7V47H41V7M1 7H41M1 7H25M14 1H25M25 1H41V7M25 1V7M41 7H25M28 4H30M32 4H38M38 27C38 36.4 30.4 44 21 44C11.6 44 4 36.4 4 27C4 17.6 11.6 10 21 10C30.4 10 38 17.6 38 27ZM21 41C13.3 41 7 34.7 7 27C7 19.3 13.3 13 21 13C25.8 13 30 15.4 32.5 19C30.9 21.3 30 24 30 27C30 30 30.9 32.7 32.5 35C30 38.6 25.8 41 21 41Z" stroke="#6E7189" stroke-width="2" stroke-linejoin="round"/>
</svg>
